<?xml version="1.0" encoding="UTF-8"?>
<svg id="Layer_1" data-name="Layer 1" xmlns="http://www.w3.org/2000/svg" viewBox="0 0 197.98 286.68">
  <defs>
    <style>
      .cls-1, .cls-2, .cls-3 {
        fill: #88b1de;
      }

      .cls-4, .cls-5 {
        fill: #fff;
      }

      .cls-5 {
        stroke-width: 7px;
      }

      .cls-5, .cls-2, .cls-3 {
        stroke: #88b1de;
        stroke-miterlimit: 10;
      }

      .cls-2 {
        stroke-width: 3px;
      }

      .cls-3 {
        stroke-width: 4px;
      }
    </style>
  </defs>
  <rect class="cls-3" x="3.5" y="34.9" width="21.45" height="248.28" rx="10.72" ry="10.72"/>
  <path class="cls-5" d="m172.76,3.5H14.36c-6,0-10.86,4.86-10.86,10.86v.65c0,6,4.86,10.86,10.86,10.86h147.53c6,0,10.86,4.86,10.86,10.86v235.58c0,6,4.86,10.86,10.86,10.86h0c6,0,10.86-4.86,10.86-10.86V25.87s0-11.51,0-11.51c0-6-4.86-10.86-10.86-10.86h-10.86Z"/>
  <path class="cls-2" d="m144.04,49.45H55.53c-3.35,0-6.07,2.72-6.07,6.07v3.32c0,3.35,2.72,6.07,6.07,6.07h82.45c3.35,0,6.07,2.72,6.07,6.07v165.63c0,3.35,2.72,6.07,6.07,6.07h0c3.35,0,6.07-2.72,6.07-6.07V55.52c0-3.35-2.72-6.07-6.07-6.07h-6.07Z"/>
  <g>
    <circle class="cls-1" cx="150.08" cy="267.68" r="11.55"/>
    <circle class="cls-4" cx="150.08" cy="267.68" r="3.12"/>
  </g>
</svg>